<?xml version="1.0" encoding="UTF-8" standalone="no"?>
<svg
   xmlns:dc="http://purl.org/dc/elements/1.1/"
   xmlns:cc="http://creativecommons.org/ns#"
   xmlns:rdf="http://www.w3.org/1999/02/22-rdf-syntax-ns#"
   xmlns:svg="http://www.w3.org/2000/svg"
   xmlns="http://www.w3.org/2000/svg"
   id="svg8"
   version="1.1"
   viewBox="0 0 100 100"
   height="100mm"
   width="100mm">
  <defs
     id="defs2" />
  <metadata
     id="metadata5">
    <rdf:RDF>
      <cc:Work
         rdf:about="">
        <dc:format>image/svg+xml</dc:format>
        <dc:type
           rdf:resource="http://purl.org/dc/dcmitype/StillImage" />
        <dc:title></dc:title>
      </cc:Work>
    </rdf:RDF>
  </metadata>
  <g
     id="layer1">
    <path
       id="circle867"
       d="M 53.64449,0.6366018 C 26.381822,-1.3762392 2.6493466,19.092825 0.63660334,46.355494 -1.3762183,73.617642 19.092062,97.349833 46.354152,99.363284 73.616768,101.37689 97.349793,80.908456 99.363297,53.645837 101.37693,26.382693 80.907679,2.6493988 53.64449,0.6366018 Z M 66.214334,21.858584 c 0.04531,0.01048 0.08957,0.02671 0.130432,0.05448 l 17.275795,11.751429 c 0.163432,0.111049 0.204815,0.331105 0.09376,0.494144 L 61.975677,66.11943 50.224247,83.395222 c -0.111051,0.163432 -0.331106,0.204813 -0.494144,0.09376 L 32.454206,71.73889 11.937419,57.784358 c -0.163168,-0.111049 -0.204812,-0.332467 -0.09376,-0.495506 L 23.59375,40.012982 c 0.11105,-0.16317 0.33244,-0.204551 0.495479,-0.09376 L 44.311343,53.674228 65.850541,22.006772 c 0.08329,-0.122573 0.227864,-0.175741 0.363819,-0.14824 z"
       style="opacity:1;vector-effect:none;fill:#23a359;fill-opacity:1;stroke:none;stroke-width:1.38049674;stroke-linecap:butt;stroke-linejoin:miter;stroke-miterlimit:4;stroke-dasharray:none;stroke-dashoffset:0;stroke-opacity:1;marker:none" />
  </g>
</svg>
