<?xml version="1.0" encoding="UTF-8" standalone="no"?>
<svg
   xmlns:dc="http://purl.org/dc/elements/1.1/"
   xmlns:cc="http://creativecommons.org/ns#"
   xmlns:rdf="http://www.w3.org/1999/02/22-rdf-syntax-ns#"
   xmlns:svg="http://www.w3.org/2000/svg"
   xmlns="http://www.w3.org/2000/svg"
   width="100mm"
   height="100mm"
   viewBox="0 0 100 100"
   version="1.1"
   id="svg8">
  <defs
     id="defs2" />
  <metadata
     id="metadata5">
    <rdf:RDF>
      <cc:Work
         rdf:about="">
        <dc:format>image/svg+xml</dc:format>
        <dc:type
           rdf:resource="http://purl.org/dc/dcmitype/StillImage" />
        <dc:title></dc:title>
      </cc:Work>
    </rdf:RDF>
  </metadata>
  <path
     id="rect818"
     d="m 50.624777,6.1361098 a 3.2178424,3.2178424 0 0 0 -2.93756,1.6047833 L 3.154478,84.874065 a 3.2178424,3.2178424 0 0 0 2.7865655,4.826342 H 95.006521 a 3.2178424,3.2178424 0 0 0 2.786568,-4.826342 L 53.260351,7.7408931 A 3.2178424,3.2178424 0 0 0 50.624777,6.1361098 Z M 45.018936,31.191226 h 10.909695 c 0.08592,0 0.155354,0.06944 0.155354,0.155355 V 65.0116 c 0,0.08592 -0.06944,0.155355 -0.155354,0.155355 H 45.018936 c -0.08592,0 -0.154809,-0.06944 -0.154809,-0.155355 V 31.346581 c 0,-0.08592 0.06889,-0.155355 0.154809,-0.155355 z m 5.454847,37.467113 a 6.0340352,6.0340352 0 0 1 6.034292,6.034291 6.0340352,6.0340352 0 0 1 -6.034292,6.033745 6.0340352,6.0340352 0 0 1 -6.03429,-6.033745 6.0340352,6.0340352 0 0 1 6.03429,-6.034291 z"
     style="opacity:1;vector-effect:none;fill:#ffdd55;fill-opacity:1;stroke:none;stroke-width:0.49049404;stroke-linecap:butt;stroke-linejoin:miter;stroke-miterlimit:4;stroke-dasharray:none;stroke-dashoffset:0;stroke-opacity:1;marker:none" />
</svg>
