<?xml version="1.0" encoding="UTF-8" standalone="no"?>
<svg
   xmlns:dc="http://purl.org/dc/elements/1.1/"
   xmlns:cc="http://creativecommons.org/ns#"
   xmlns:rdf="http://www.w3.org/1999/02/22-rdf-syntax-ns#"
   xmlns:svg="http://www.w3.org/2000/svg"
   xmlns="http://www.w3.org/2000/svg"
   id="svg960"
   version="1.1"
   viewBox="0 0 649.99999 120"
   height="120mm"
   width="650mm">
  <defs
     id="defs954" />
  <metadata
     id="metadata957">
    <rdf:RDF>
      <cc:Work
         rdf:about="">
        <dc:format>image/svg+xml</dc:format>
        <dc:type
           rdf:resource="http://purl.org/dc/dcmitype/StillImage" />
        <dc:title></dc:title>
      </cc:Work>
    </rdf:RDF>
  </metadata>
  <g
     transform="translate(445.02167,-141.60698)"
     id="layer1">
    <path
       id="rect1641"
       d="m -333.20323,173.64708 v 17.4988 c -1.03505,-0.99191 -2.21019,-1.77906 -3.52556,-2.36128 -1.31536,-0.58221 -2.9005,-0.87328 -4.75496,-0.87328 -2.17791,0 -4.1402,0.44187 -5.88684,1.32597 -1.74663,0.86253 -3.24505,2.0702 -4.49573,3.62277 -1.25068,1.55257 -2.2103,3.38542 -2.87877,5.49863 -0.66847,2.11322 -1.0029,4.39911 -1.0029,6.85734 0,2.71699 0.29139,5.13199 0.87361,7.24521 0.60377,2.11321 1.44447,3.89218 2.52265,5.33694 1.09974,1.42318 2.40432,2.51225 3.91376,3.26697 1.50944,0.75472 3.16981,1.13187 4.98114,1.13187 2.30729,0 4.32346,-0.47439 6.04853,-1.42318 1.74664,-0.94879 3.28874,-2.18865 4.62567,-3.71966 l 0.67919,3.20216 c 0.28033,0.97036 0.94855,1.45559 2.00516,1.45559 h 4.88426 v -48.06485 z m 50.20579,0 v 48.06485 h 7.9892 v -15.20234 h 1.81139 c 0.6469,0 1.13181,0.0756 1.45526,0.22651 0.32345,0.15094 0.63621,0.47453 0.9381,0.9705 l 8.47461,12.58215 c 0.30189,0.53909 0.67905,0.91656 1.13188,1.13219 0.45283,0.19408 0.99195,0.29099 1.61727,0.29099 h 7.21314 l -11.06208,-16.10803 c -0.32346,-0.49596 -0.6684,-0.95951 -1.03499,-1.39078 -0.345,-0.43127 -0.74416,-0.80842 -1.19699,-1.13187 0.86254,-0.51753 1.66052,-1.26164 2.39367,-2.23199 l 10.31809,-12.32356 h -7.31002 c -0.66846,0 -1.21841,0.1186 -1.64969,0.35579 -0.40969,0.23721 -0.78685,0.58248 -1.13186,1.03531 l -8.24812,10.18847 c -0.32345,0.43127 -0.64704,0.72234 -0.9705,0.87329 -0.30189,0.12937 -0.7224,0.19409 -1.26149,0.19409 h -1.48767 v -27.52557 z m 170.72211,0 v 48.06485 h 7.9892 v -24.00002 c 1.07818,-1.07817 2.22112,-1.93004 3.42867,-2.55538 1.207554,-0.62534 2.501284,-0.9381 3.881344,-0.9381 1.8976,0 3.309928,0.56079 4.237158,1.68209 0.927229,1.09974 1.391092,2.6632 1.391092,4.69016 v 21.12125 h 7.989208 v -21.12125 c 0,-1.85445 -0.248033,-3.54735 -0.743984,-5.07836 -0.474398,-1.55257 -1.18598,-2.87882 -2.134777,-3.97856 -0.92723,-1.1213 -2.091526,-1.98368 -3.493154,-2.58746 -1.401628,-0.62534 -3.00812,-0.9381 -4.819443,-0.9381 -2.09166,0 -3.914,0.37748 -5.466574,1.1322 -1.55255,0.75472 -2.97573,1.7357 -4.26954,2.94326 v -18.43658 z m -295.9976,0.77607 c -2.45824,0 -4.63604,0.37748 -6.53362,1.1322 -1.89759,0.75472 -3.49324,1.75738 -4.78705,3.00806 -1.2938,1.25068 -2.28562,2.6847 -2.97566,4.30196 -0.66846,1.61726 -1.0029,3.27763 -1.0029,4.98114 0,2.13478 0.30191,3.93543 0.90569,5.40175 0.62534,1.44475 1.44469,2.65208 2.45817,3.62244 1.01348,0.97035 2.16727,1.7575 3.46107,2.36128 1.2938,0.60377 2.60922,1.12121 3.94616,1.55248 1.33693,0.43127 2.65235,0.83042 3.94616,1.197 1.2938,0.36658 2.44726,0.81929 3.46075,1.35837 1.01347,0.51752 1.8223,1.16439 2.42608,1.94068 0.62534,0.77628 0.93778,1.77894 0.93778,3.00806 0,2.19947 -0.67907,3.89237 -2.03757,5.07836 -1.3585,1.16442 -3.27775,1.74657 -5.75754,1.74657 -1.61726,0 -3.00824,-0.21551 -4.17266,-0.64678 -1.14286,-0.45283 -2.14553,-0.9489 -3.00807,-1.48799 -0.86254,-0.53909 -1.60632,-1.02432 -2.23166,-1.45559 -0.62534,-0.45283 -1.20749,-0.67919 -1.74658,-0.67919 -0.38814,0 -0.75477,0.10776 -1.09979,0.3234 -0.34501,0.19407 -0.62525,0.4421 -0.84088,0.74399 l -2.55538,4.17266 c 0.90566,0.92723 1.94085,1.76794 3.10527,2.52266 1.16443,0.75472 2.40429,1.40191 3.71966,1.941 1.33693,0.53908 2.72759,0.94875 4.17234,1.22908 1.44475,0.30188 2.91129,0.45268 4.39917,0.45268 2.58761,0 4.88401,-0.38799 6.88941,-1.16427 2.0054,-0.79785 3.69797,-1.87607 5.07803,-3.23457 1.40163,-1.38006 2.45849,-2.98656 3.17008,-4.81945 0.73316,-1.85446 1.09947,-3.83842 1.09947,-5.95164 0,-1.94071 -0.31243,-3.59024 -0.93777,-4.94874 -0.60378,-1.3585 -1.41261,-2.50144 -2.42609,-3.42867 -1.01348,-0.94879 -2.16694,-1.72509 -3.46074,-2.32887 -1.29382,-0.62534 -2.62007,-1.16445 -3.97857,-1.61729 -1.35849,-0.47439 -2.68475,-0.91626 -3.97856,-1.32597 -1.2938,-0.4097 -2.44726,-0.87326 -3.46075,-1.39078 -1.01348,-0.51752 -1.83283,-1.14303 -2.45817,-1.87619 -0.60378,-0.73316 -0.90569,-1.64942 -0.90569,-2.74915 0,-0.86254 0.1508,-1.64969 0.45269,-2.36128 0.30189,-0.73316 0.75492,-1.35867 1.3587,-1.8762 0.62534,-0.51752 1.39081,-0.91635 2.29647,-1.19668 0.90567,-0.30189 1.96221,-0.45268 3.16976,-0.45268 1.33693,0 2.49039,0.17248 3.46074,0.51749 0.99192,0.32345 1.85463,0.69009 2.58779,1.09979 0.73316,0.40971 1.35834,0.78686 1.87586,1.13188 0.53909,0.32345 1.03516,0.48541 1.488,0.48541 0.43127,0 0.78706,-0.0972 1.06739,-0.29131 0.30188,-0.21564 0.58212,-0.54975 0.84088,-1.00258 l 2.16718,-4.10786 c -1.63882,-1.55257 -3.62247,-2.76023 -5.95132,-3.62277 -2.32885,-0.86254 -4.87362,-1.29389 -7.63373,-1.29389 z m 197.16539,0.51782 v 46.77096 h 29.49898 v -6.95422 h -20.76579 v -13.22926 h 16.36663 v -6.69531 h -16.36663 v -12.97035 h 20.76579 v -6.92182 z m -92.91232,12.89776 c -2.5044,0 -4.78013,0.40291 -6.8272,1.20867 -2.04707,0.80577 -3.80008,1.94911 -5.25917,3.42996 -1.43731,1.48087 -2.55908,3.28832 -3.36483,5.42249 -0.78399,2.13418 -1.17594,4.51878 -1.17594,7.15383 0,2.65684 0.39195,5.05238 1.17594,7.18656 0.80575,2.13418 1.92752,3.95258 3.36483,5.45521 1.45909,1.50264 3.2121,2.65693 5.25917,3.4627 2.04707,0.80576 4.3228,1.20867 6.8272,1.20867 2.48262,0 4.73645,-0.40291 6.76174,-1.20867 2.04707,-0.80577 3.78946,-1.96006 5.22676,-3.4627 1.45909,-1.50263 2.58053,-3.32103 3.36451,-5.45521 0.78399,-2.13418 1.17594,-4.52972 1.17594,-7.18656 0,-2.63505 -0.39195,-5.01965 -1.17594,-7.15383 -0.78398,-2.13417 -1.90542,-3.94162 -3.36451,-5.42249 -1.4373,-1.48085 -3.17969,-2.62419 -5.22676,-3.42996 -2.02529,-0.80576 -4.27912,-1.20867 -6.76174,-1.20867 z m 240.302892,0.0726 c -5.369296,0 -9.962423,1.74645 -13.779148,5.23972 l 1.42318,2.55538 c 0.237199,0.38815 0.549953,0.7331 0.938096,1.03499 0.388143,0.28032 0.862542,0.4206 1.42318,0.4206 0.64691,0 1.229066,-0.15112 1.746585,-0.45301 0.539086,-0.30189 1.132076,-0.636 1.77897,-1.00258 0.646911,-0.38813 1.390695,-0.73309 2.231668,-1.03498 0.862542,-0.30189 1.940748,-0.45301 3.234569,-0.45301 1.789754,0 3.159064,0.53911 4.107861,1.61729 0.948781,1.05661 1.42318,2.69562 1.42318,4.91666 v 1.94067 c -2.522921,0.0647 -4.76544,0.25885 -6.727722,0.5823 -1.962283,0.30189 -3.687366,0.70072 -5.17525,1.19668 -1.466316,0.49596 -2.706167,1.07811 -3.719652,1.74658 -1.013469,0.66846 -1.843658,1.38005 -2.490569,2.13477 -0.625342,0.75472 -1.078056,1.55271 -1.358375,2.39369 -0.280319,0.81941 -0.420595,1.64959 -0.420595,2.49057 -1.7e-5,1.48788 0.237183,2.79245 0.711582,3.91375 0.474398,1.1213 1.142943,2.05924 2.005485,2.81397 0.862541,0.75472 1.886562,1.32603 3.072542,1.71417 1.185997,0.36657 2.48005,0.54989 3.881678,0.54989 1.185997,0 2.263888,-0.10776 3.234253,-0.32339 0.991918,-0.19407 1.919346,-0.48514 2.781871,-0.87329 0.862542,-0.38814 1.692731,-0.86253 2.490585,-1.42318 0.797837,-0.58221 1.617193,-1.25077 2.458167,-2.00548 l 0.711581,2.39368 c 0.2372,0.69003 0.560804,1.15358 0.970499,1.39078 0.409711,0.21564 0.991867,0.32339 1.746585,0.32339 h 3.622446 v -20.95955 c 0,-1.87603 -0.280237,-3.60112 -0.840891,-5.17525 -0.539087,-1.57413 -1.336741,-2.92207 -2.393363,-4.04337 -1.056605,-1.14286 -2.350674,-2.02693 -3.881678,-2.65227 -1.531003,-0.6469 -3.266605,-0.97017 -5.20732,-0.97017 z m 67.0529619,0.0324 c -1.897595,0 -3.65519627,0.24771 -5.2724557,0.74367 -1.5956913,0.49596 -2.9863532,1.21839 -4.1723492,2.16718 -1.164413,0.92723 -2.081007,2.05934 -2.749469,3.39627 -0.646911,1.31537 -0.970183,2.79243 -0.970183,4.43124 0,2.02697 0.474398,3.79542 1.423179,5.30486 0.970366,1.50944 2.29629,2.71678 3.9782537,3.62245 -0.7331667,0.36657 -1.3691927,0.78709 -1.9082797,1.26148 -0.539086,0.45284 -0.991801,0.93807 -1.358376,1.45559 -0.345006,0.51752 -0.61474,1.04579 -0.808803,1.58488 -0.172512,0.51752 -0.258585,1.02412 -0.258585,1.52007 0,1.22912 0.258551,2.22127 0.77607,2.97599 0.517518,0.75472 1.218598,1.35855 2.102707,1.81138 -1.638827,0.62534 -2.932897,1.46604 -3.881678,2.52265 -0.927229,1.03505 -1.390777,2.32911 -1.390777,3.88168 0,1.14286 0.301903,2.24244 0.905694,3.29905 0.603774,1.05661 1.520352,1.98404 2.749469,2.78188 1.229116,0.81941 2.770904,1.46628 4.625346,1.94068 1.8544588,0.49596 4.0322566,0.74367 6.5336257,0.74367 2.5444888,0 4.8086917,-0.33411 6.7925263,-1.00258 2.005402,-0.6469 3.687449,-1.50929 5.045957,-2.58746 1.38006,-1.07817 2.425765,-2.30751 3.137346,-3.68758 0.733166,-1.38005 1.099791,-2.80323 1.099791,-4.26955 0,-1.57413 -0.312754,-2.85702 -0.938096,-3.84894 -0.603775,-1.01349 -1.41228,-1.81148 -2.425765,-2.39369 -1.013469,-0.58221 -2.167263,-1.00272 -3.461067,-1.26148 -1.293804,-0.28033 -2.62006,-0.47416 -3.9785684,-0.58198 -1.3584919,-0.10781 -2.6844325,-0.17253 -3.9782367,-0.1941 -1.2938042,-0.0431 -2.4475816,-0.12953 -3.4610668,-0.25891 -1.01348517,-0.12938 -1.83282427,-0.34489 -2.45816657,-0.64678 -0.60379083,-0.32345 -0.90569443,-0.81953 -0.90569443,-1.48799 0,-0.77629 0.5174354,-1.47704 1.55247213,-2.10238 0.582206,0.10782 1.1751962,0.19422 1.77898687,0.25891 0.6037742,0.0647 1.2292824,0.0969 1.8761928,0.0969 1.8328907,0 3.5363063,-0.24804 5.1104294,-0.744 1.5956917,-0.51752 2.9758347,-1.23995 4.1402627,-2.16718 1.164429,-0.92722 2.070157,-2.04848 2.717067,-3.36386 0.668462,-1.33693 1.002585,-2.82482 1.002585,-4.46365 0,-1.35849 -0.226349,-2.6092 -0.67918,-3.75206 l 2.975652,-0.54989 c 1.142861,-0.21564 1.714167,-0.79779 1.714167,-1.74658 v -2.97566 h -9.54168 c -1.0350529,-0.56067 -2.1779799,-0.98118 -3.4286644,-1.2615 -1.250668,-0.30189 -2.5874591,-0.45269 -4.0106387,-0.45269 z m -132.4902639,0.0645 c -2.60916,0 -4.91673,0.43136 -6.92213,1.2939 -2.0054,0.86253 -3.68713,2.05935 -5.04563,3.59036 -1.35849,1.50944 -2.39367,3.30977 -3.10527,5.40142 -0.69003,2.07009 -1.03499,4.32378 -1.03499,6.76045 0,2.71699 0.38799,5.14284 1.16428,7.27762 0.79784,2.11321 1.87606,3.90302 3.23457,5.36934 1.35849,1.46631 2.94363,2.58757 4.75495,3.36386 1.81134,0.75472 3.74111,1.13187 5.78963,1.13187 1.16443,0 2.32906,-0.0861 3.49348,-0.25858 1.18598,-0.17251 2.32861,-0.46359 3.42834,-0.87329 1.12131,-0.43127 2.19953,-0.99207 3.23457,-1.68209 1.03505,-0.7116 1.99466,-1.58482 2.87877,-2.61987 l -2.29647,-2.9112 c -0.32345,-0.49596 -0.80869,-0.744 -1.4556,-0.744 -0.49595,0 -0.94866,0.16196 -1.35837,0.48541 -0.38815,0.30189 -0.85201,0.64684 -1.3911,1.03499 -0.53908,0.36657 -1.20731,0.71153 -2.00517,1.03498 -0.77627,0.30189 -1.80062,0.45268 -3.07285,0.45268 -1.27226,0 -2.4152,-0.23719 -3.42868,-0.71159 -1.01347,-0.49596 -1.87587,-1.20755 -2.58746,-2.13477 -0.71159,-0.94879 -1.26154,-2.11309 -1.64968,-3.49315 -0.36658,-1.38006 -0.54991,-2.95403 -0.54991,-4.72224 0,-1.70351 0.17248,-3.22393 0.51751,-4.56086 0.345,-1.3585 0.86244,-2.51196 1.55247,-3.46075 0.7116,-0.94879 1.59597,-1.67122 2.65259,-2.16718 1.05661,-0.51752 2.28562,-0.7764 3.68725,-0.7764 1.09973,0 2.01599,0.12944 2.74916,0.3882 0.75471,0.23719 1.40191,0.51743 1.94099,0.84088 0.53909,0.30189 1.00264,0.58213 1.39078,0.84089 0.38814,0.2372 0.78697,0.35579 1.19668,0.35579 0.43128,0 0.75487,-0.0861 0.9705,-0.25858 0.2372,-0.17251 0.4744,-0.40971 0.7116,-0.71159 l 2.10237,-2.91118 c -1.48788,-1.48788 -3.16993,-2.63082 -5.04595,-3.42866 -1.85446,-0.79785 -4.02143,-1.19669 -6.50123,-1.19669 z m 102.050917,0 c -1.121309,0 -2.156495,0.11861 -3.105276,0.3558 -0.948798,0.21564 -1.843708,0.52839 -2.684681,0.9381 -0.819406,0.38814 -1.606227,0.87338 -2.360945,1.45558 -0.733166,0.56066 -1.434229,1.175 -2.102707,1.84347 l -0.549887,-2.61987 c -0.323456,-0.97035 -1.002519,-1.45558 -2.037572,-1.45558 h -4.884247 v 33.18623 h 7.989207 v -24.00002 c 1.078173,-1.07817 2.2211,-1.93004 3.428665,-2.55538 1.207549,-0.62534 2.501287,-0.9381 3.881347,-0.9381 1.897578,0 3.310239,0.56079 4.237468,1.68209 0.92723,1.09974 1.390778,2.6632 1.390778,4.69016 v 21.12125 h 7.989207 v -21.12125 c 0,-1.85445 -0.248033,-3.54735 -0.743983,-5.07836 -0.474399,-1.55257 -1.185997,-2.87882 -2.134778,-3.97856 -0.927229,-1.1213 -2.091525,-1.98368 -3.493153,-2.58746 -1.401629,-0.62534 -3.00812,-0.9381 -4.819443,-0.9381 z m 65.447332,0 c -2.479801,0 -4.711485,0.43136 -6.69532,1.2939 -1.962266,0.86253 -3.633495,2.03767 -5.013539,3.52555 -1.358508,1.46632 -2.404528,3.20225 -3.137677,5.20765 -0.733167,1.98384 -1.099476,4.10776 -1.099476,6.37192 0,2.91107 0.420512,5.47719 1.261485,7.69822 0.840974,2.19947 1.994436,4.054 3.460752,5.56344 1.466316,1.48788 3.191399,2.61998 5.175233,3.39627 1.983851,0.75472 4.129446,1.13187 6.436735,1.13187 1.164429,0 2.361243,-0.0861 3.590376,-0.25858 1.250668,-0.17251 2.468851,-0.46359 3.654831,-0.87329 1.207565,-0.43127 2.361343,-0.99207 3.461084,-1.68209 1.099741,-0.7116 2.091558,-1.58482 2.975651,-2.61987 l -2.296472,-2.9112 c -0.323455,-0.49596 -0.819521,-0.744 -1.487983,-0.744 -0.495967,0 -1.013386,0.15112 -1.552472,0.45301 -0.517535,0.30188 -1.13221,0.636 -1.843791,1.00258 -0.69003,0.36658 -1.509386,0.70101 -2.458167,1.0029 -0.927229,0.30189 -2.037655,0.45269 -3.331459,0.45269 -1.293804,0 -2.479801,-0.19416 -3.557957,-0.5823 -1.056621,-0.40971 -1.9732,-1.01354 -2.749485,-1.81139 -0.776286,-0.81941 -1.401479,-1.84342 -1.875861,-3.07255 -0.474399,-1.25067 -0.776319,-2.72773 -0.905695,-4.43124 h 20.539272 c 0.73315,0 1.228901,-0.205 1.487669,-0.61471 0.258767,-0.43126 0.388209,-1.25061 0.388209,-2.45816 0,-2.39355 -0.366641,-4.51748 -1.099808,-6.37193 -0.711581,-1.87602 -1.703415,-3.45031 -2.975651,-4.72256 -1.272253,-1.2938 -2.79234,-2.27479 -4.560543,-2.94325 -1.768203,-0.66846 -3.698282,-1.00291 -5.789941,-1.00291 z m 46.744386,0 c -2.609177,0 -4.916731,0.43136 -6.922134,1.2939 -2.005402,0.86253 -3.687133,2.05935 -5.045625,3.59036 -1.358509,1.50944 -2.393695,3.30977 -3.105276,5.40142 -0.69003,2.07009 -1.034987,4.32378 -1.034987,6.76045 0,2.71699 0.387993,5.14284 1.164279,7.27762 0.797837,2.11321 1.87606,3.90302 3.234569,5.36934 1.358492,1.46631 2.943614,2.58757 4.754954,3.36386 1.811322,0.75472 3.741103,1.13187 5.789625,1.13187 1.164429,0 2.329057,-0.0861 3.493469,-0.25858 1.185997,-0.17251 2.328609,-0.46359 3.42835,-0.87329 1.121292,-0.43127 2.199515,-0.99207 3.234568,-1.68209 1.035053,-0.7116 1.994668,-1.58482 2.878778,-2.61987 l -2.296472,-2.9112 c -0.323455,-0.49596 -0.808688,-0.744 -1.455598,-0.744 -0.495967,0 -0.948665,0.16196 -1.358376,0.48541 -0.388143,0.30189 -0.852007,0.64684 -1.391093,1.03499 -0.539087,0.36657 -1.207316,0.71153 -2.00517,1.03498 -0.776286,0.30189 -1.800622,0.45268 -3.072874,0.45268 -1.272236,0 -2.41518,-0.23719 -3.428665,-0.71159 -1.013485,-0.49596 -1.875861,-1.20755 -2.587459,-2.13477 -0.711582,-0.94879 -1.261535,-2.11309 -1.649678,-3.49315 -0.366591,-1.38006 -0.549904,-2.95403 -0.549904,-4.72224 0,-1.70351 0.172479,-3.22393 0.517485,-4.56086 0.345024,-1.3585 0.862443,-2.51196 1.552489,-3.46075 0.711582,-0.94879 1.595973,-1.67122 2.652578,-2.16718 1.056622,-0.51752 2.285639,-0.7764 3.687267,-0.7764 1.099724,0 2.015987,0.12944 2.749153,0.3882 0.754718,0.23719 1.40191,0.51743 1.940997,0.84088 0.539086,0.30189 1.002635,0.58213 1.390777,0.84089 0.388143,0.2372 0.786971,0.35579 1.196682,0.35579 0.431262,0 0.754867,-0.0861 0.970498,-0.25858 0.237199,-0.17251 0.474399,-0.40971 0.711598,-0.71159 l 2.102359,-2.91118 c -1.487867,-1.48788 -3.16993,-2.63082 -5.04594,-3.42866 -1.854459,-0.79785 -4.021423,-1.19669 -6.501224,-1.19669 z m 29.972725,0 c -2.47978,0 -4.73315,0.39884 -6.76012,1.19669 -2.02697,0.79784 -3.7629,1.92994 -5.20763,3.39626 -1.4232,1.46631 -2.53363,3.25612 -3.331464,5.36934 -0.776286,2.11322 -1.164595,4.47467 -1.164595,7.08384 0,2.63074 0.388309,5.0027 1.164595,7.11592 0.797834,2.11322 1.908264,3.91355 3.331464,5.40142 1.44473,1.48788 3.18066,2.63082 5.20763,3.42867 2.02697,0.79785 4.28034,1.19668 6.76012,1.19668 2.45823,0 4.68992,-0.39883 6.69532,-1.19668 2.02697,-0.79785 3.75205,-1.94079 5.17525,-3.42867 1.44475,-1.48787 2.55549,-3.2882 3.33177,-5.40142 0.77629,-2.11322 1.16428,-4.48518 1.16428,-7.11592 0,-2.60917 -0.38799,-4.97062 -1.16428,-7.08384 -0.77628,-2.11322 -1.88702,-3.90303 -3.33177,-5.36934 -1.4232,-1.46632 -3.14828,-2.59842 -5.17525,-3.39626 -2.0054,-0.79785 -4.23709,-1.19669 -6.69532,-1.19669 z m 37.38937,0 c -0.99193,0 -1.9082,0.11861 -2.74917,0.3558 -0.81941,0.21564 -1.59571,0.51755 -2.32887,0.90569 -0.71159,0.38814 -1.39098,0.85169 -2.03789,1.39078 -0.62534,0.53909 -1.22917,1.13208 -1.81137,1.77898 l -0.51751,-2.45817 c -0.32345,-0.97035 -1.00251,-1.45558 -2.03755,-1.45558 h -4.88426 v 33.18623 h 7.9892 v -24.29133 c 0.86254,-0.99192 1.78997,-1.76823 2.78189,-2.32888 1.01349,-0.58222 2.10223,-0.87329 3.26666,-0.87329 1.72506,0 3.02963,0.50691 3.91374,1.5204 0.90567,1.01348 1.35869,2.63082 1.35869,4.85185 v 21.12125 h 8.02163 v -21.12125 c 0,-1.03504 0.15079,-1.95164 0.45268,-2.74948 0.30189,-0.79785 0.71155,-1.45555 1.22909,-1.97308 0.53908,-0.53908 1.15376,-0.94876 1.84379,-1.22908 0.71158,-0.28033 1.47705,-0.42061 2.29647,-0.42061 1.78975,0 3.14821,0.53911 4.07544,1.61729 0.92723,1.05661 1.39078,2.64174 1.39078,4.75496 v 21.12125 h 7.98954 v -21.12125 c 0,-2.0054 -0.25889,-3.78437 -0.7764,-5.33694 -0.49597,-1.55257 -1.22924,-2.86799 -2.19959,-3.94616 -0.97036,-1.07817 -2.16718,-1.89784 -3.59037,-2.45849 -1.42318,-0.56065 -3.05103,-0.84089 -4.88393,-0.84089 -1.05661,0 -2.11315,0.11861 -3.16975,0.3558 -1.03505,0.2372 -2.01635,0.60383 -2.94358,1.09979 -0.92723,0.49596 -1.77911,1.14283 -2.55539,1.94068 -0.77629,0.77628 -1.42315,1.71423 -1.94067,2.81396 -0.66846,-1.87601 -1.68198,-3.37443 -3.04047,-4.49573 -1.33692,-1.14286 -3.05119,-1.7145 -5.14283,-1.7145 z m -541.88338,0.5175 v 21.08917 c 0,1.85446 0.23719,3.55787 0.71159,5.11043 0.49596,1.53101 1.21838,2.85727 2.16718,3.97857 0.94879,1.1213 2.11341,1.99452 3.49347,2.61986 1.40162,0.60378 3.00812,0.90569 4.81945,0.90569 2.22104,0 4.1508,-0.42051 5.78962,-1.26148 1.63882,-0.86254 3.13756,-1.98381 4.49606,-3.36386 l 0.54989,2.65226 c 0.28032,0.97036 0.94855,1.45559 2.00516,1.45559 h 4.88426 v -33.18623 h -7.98921 v 24.00034 c -1.07817,1.07818 -2.22111,1.92972 -3.42867,2.55506 -1.20755,0.60378 -2.50128,0.90569 -3.88135,0.90569 -1.87602,0 -3.28835,-0.54995 -4.23714,-1.64968 -0.92723,-1.12131 -1.39078,-2.69528 -1.39078,-4.72224 v -21.08917 z m 140.73123,0 v 21.08917 c 0,1.85446 0.23719,3.55787 0.71158,5.11043 0.49597,1.53101 1.2184,2.85727 2.16718,3.97857 0.9488,1.1213 2.11341,1.99452 3.49349,2.61986 1.40161,0.60378 3.00779,0.90569 4.81911,0.90569 2.22103,0 4.15113,-0.42051 5.78996,-1.26148 1.63881,-0.86254 3.13756,-1.98381 4.49605,-3.36386 l 0.54989,2.65226 c 0.28033,0.97036 0.94856,1.45559 2.00517,1.45559 h 4.88425 v -33.18623 h -7.98921 v 24.00034 c -1.07818,1.07818 -2.22112,1.92972 -3.42867,2.55506 -1.20755,0.60378 -2.50128,0.90569 -3.88134,0.90569 -1.87603,0 -3.28836,-0.54995 -4.23716,-1.64968 -0.92723,-1.12131 -1.39111,-2.69528 -1.39111,-4.72224 v -21.08917 z m 70.17994,0 10.93277,16.07562 -11.38547,17.11061 h 7.14834 c 0.51752,0 0.94855,-0.15079 1.29357,-0.45268 0.34501,-0.32345 0.63608,-0.66873 0.87327,-1.03531 l 6.21056,-9.60649 c 0.17251,-0.28033 0.3233,-0.58224 0.45268,-0.90569 0.15094,-0.32345 0.28038,-0.6684 0.38821,-1.03499 l 7.01871,11.54717 c 0.2372,0.38814 0.52858,0.73342 0.8736,1.03531 0.36658,0.30189 0.84098,0.45268 1.42318,0.45268 h 7.69791 l -11.35307,-17.4664 10.90037,-15.71983 h -7.34241 c -0.75472,0 -1.36939,0.39915 -1.84379,1.197 l -5.59553,8.7332 c -0.43126,0.71159 -0.7657,1.4337 -1.0029,2.16686 l -6.95391,-11.06176 c -0.21563,-0.36658 -0.46366,-0.62545 -0.74398,-0.7764 -0.28034,-0.1725 -0.71168,-0.2589 -1.2939,-0.2589 z m 181.8577439,5.01354 c 1.9622661,0 3.4284824,0.48524 4.3988313,1.45559 0.9919171,0.94879 1.4880001,2.24254 1.4880001,3.88135 0,0.79785 -0.1294418,1.53112 -0.3882093,2.19959 -0.2371827,0.66847 -0.6038239,1.23978 -1.0997908,1.71417 -0.4743987,0.4744 -1.0782226,0.85187 -1.8113722,1.1322 -0.7331662,0.25876 -1.595542,0.38819 -2.5874591,0.38819 -0.970349,0 -1.8330732,-0.12943 -2.58779087,-0.38819 -0.7331496,-0.28033 -1.3474921,-0.6578 -1.84345903,-1.1322 -0.4743987,-0.49596 -0.8410399,-1.07811 -1.0997908,-1.74658 -0.2371993,-0.66846 -0.3558073,-1.39089 -0.3558073,-2.16718 0,-1.63881 0.4852491,-2.93256 1.4555981,-3.88135 0.99191713,-0.97035 2.4689672,-1.45559 4.4312499,-1.45559 z m 35.1696801,0.1941 c 1.185997,0 2.221183,0.205 3.105276,0.61471 0.905661,0.38814 1.649446,0.92726 2.231668,1.61728 0.582206,0.69003 1.013568,1.49854 1.293887,2.42577 0.301887,0.90566 0.452682,1.87612 0.452682,2.91117 h -15.07272 c 0.366574,-2.41511 1.207598,-4.28047 2.52297,-5.59585 1.33694,-1.31536 3.158948,-1.97308 5.466237,-1.97308 z m -378.113234,0.25891 c 1.22912,0 2.37206,0.22636 3.42867,0.67919 1.07817,0.45283 2.06999,1.22914 2.97566,2.32888 v 14.87862 c -1.03505,1.27224 -2.13495,2.25355 -3.29938,2.94358 -1.16442,0.69003 -2.57676,1.03498 -4.23714,1.03498 -1.03505,0 -1.97299,-0.18331 -2.81397,-0.54989 -0.84097,-0.38815 -1.55256,-1.00282 -2.13477,-1.84379 -0.58222,-0.86254 -1.03493,-1.96213 -1.35838,-3.29905 -0.30189,-1.3585 -0.45301,-3.00803 -0.45301,-4.94874 0,-1.91915 0.18332,-3.57953 0.5499,-4.98115 0.36658,-1.42318 0.89484,-2.58781 1.58488,-3.49347 0.69003,-0.92723 1.52022,-1.61714 2.49057,-2.06997 0.97036,-0.45283 2.05942,-0.67919 3.26697,-0.67919 z m 35.5877,0.0204 c 2.78749,0 4.84551,0.9472 6.17393,2.84183 1.35019,1.89462 2.02525,4.6496 2.02525,8.26464 0,3.61504 -0.67506,6.35874 -2.02525,8.23159 -1.32842,1.87285 -3.38644,2.80942 -6.17393,2.80942 -2.83106,0 -4.93256,-0.93657 -6.30453,-2.80942 -1.3502,-1.89463 -2.02525,-4.63833 -2.02525,-8.23159 0,-3.59326 0.67505,-6.33728 2.02525,-8.23191 1.37197,-1.91641 3.47347,-2.87456 6.30453,-2.87456 z m 419.08095,0.10887 c 2.76012,0 4.79797,0.93795 6.11335,2.81397 1.33692,1.87602 2.00515,4.60377 2.00515,8.1833 0,3.57954 -0.66823,6.29645 -2.00515,8.15091 -1.31538,1.85446 -3.35323,2.78188 -6.11335,2.78188 -2.80324,0 -4.88413,-0.92742 -6.24262,-2.78188 -1.33694,-1.87602 -2.00549,-4.59294 -2.00549,-8.15091 0,-3.55796 0.66855,-6.27488 2.00549,-8.1509 1.35849,-1.89758 3.43938,-2.84637 6.24262,-2.84637 z m -174.249917,13.42336 v 5.59553 c -1.142861,1.20755 -2.318007,2.11329 -3.525556,2.71707 -1.185997,0.58221 -2.598326,0.87329 -4.237153,0.87329 -1.336924,0 -2.425997,-0.30191 -3.266971,-0.90569 -0.819405,-0.60377 -1.229083,-1.60644 -1.229083,-3.00807 0,-0.71159 0.204996,-1.3693 0.614708,-1.97308 0.409711,-0.60378 1.088774,-1.13205 2.037555,-1.58488 0.948797,-0.45283 2.210332,-0.81946 3.784472,-1.09979 1.574123,-0.30188 3.514738,-0.50656 5.822028,-0.61438 z m 120.171866,4.88393 c -0.690046,0 -1.336907,0.12945 -1.940681,0.3882 -0.603774,0.25877 -1.12121,0.60372 -1.552472,1.03499 -0.431279,0.43126 -0.776552,0.94869 -1.035319,1.55247 -0.237199,0.60377 -0.355791,1.24013 -0.355791,1.9086 0,0.69003 0.118592,1.3369 0.355791,1.94067 0.258767,0.58222 0.60404,1.08881 1.035319,1.52008 0.431262,0.43126 0.948698,0.7657 1.552472,1.0029 0.603774,0.25876 1.250635,0.38787 1.940681,0.38787 0.69003,0 1.326057,-0.12911 1.908263,-0.38787 0.603774,-0.2372 1.121541,-0.57164 1.552804,-1.0029 0.452831,-0.43127 0.808621,-0.93786 1.067389,-1.52008 0.258751,-0.60377 0.387877,-1.25064 0.387877,-1.94067 0,-0.66847 -0.129126,-1.30483 -0.387877,-1.9086 -0.258768,-0.60378 -0.614558,-1.12121 -1.067389,-1.55247 -0.431263,-0.43127 -0.94903,-0.77622 -1.552804,-1.03499 -0.582206,-0.25875 -1.218233,-0.3882 -1.908263,-0.3882 z m -62.2079193,7.08352 c 1.01348523,0.12938 2.04867123,0.21578 3.105276,0.25891 1.078173,0.0431 2.113359,0.097 3.1052761,0.16169 1.0134852,0.0431 1.9622661,0.11869 2.8463758,0.22651 0.9056613,0.10781 1.6924823,0.28029 2.3609444,0.51749 0.668478,0.21563 1.196748,0.52839 1.58489,0.93809 0.388143,0.40971 0.58229,0.93798 0.58229,1.58488 0,0.64691 -0.161629,1.2399 -0.485084,1.77898 -0.323455,0.56065 -0.840874,1.03504 -1.552472,1.42319 -0.6900299,0.4097 -1.5744217,0.72214 -2.6525946,0.93777 -1.0781729,0.2372 -2.3610603,0.3558 -3.8489443,0.3558 -1.4663158,0 -2.7061831,-0.10776 -3.71965167,-0.3234 -1.0134852,-0.19407 -1.84367473,-0.4743 -2.49056853,-0.84088 -0.6253423,-0.36658 -1.0888906,-0.80878 -1.3907943,-1.3263 -0.280319,-0.49596 -0.4205946,-1.03507 -0.4205946,-1.61728 0,-0.8841 0.2697174,-1.66009 0.8088039,-2.32855 0.5606379,-0.66847 1.2827546,-1.25095 2.1668478,-1.7469 z"
       style="opacity:1;vector-effect:none;fill:#a4a4a4;fill-opacity:1;stroke:none;stroke-width:13.82986069;stroke-linecap:butt;stroke-linejoin:miter;stroke-miterlimit:4;stroke-dasharray:none;stroke-dashoffset:0;stroke-opacity:1" />
  </g>
</svg>
